<mxfile host="app.diagrams.net" modified="2023-03-18T20:27:24.387Z" agent="5.0 (Windows)" etag="iCbRMpd_d9AOCGiWybRB" version="21.0.6" type="github" pages="2">
  <diagram name="index of max and min value" id="vBTHNjuzFwccUpQDCK3G">
    <mxGraphModel dx="2074" dy="1142" grid="1" gridSize="10" guides="1" tooltips="1" connect="1" arrows="1" fold="1" page="1" pageScale="1" pageWidth="827" pageHeight="1169" math="0" shadow="0">
      <root>
        <mxCell id="0" />
        <mxCell id="1" parent="0" />
        <mxCell id="6eV6HnODiuM__9N0Hbm2-4" value="" style="edgeStyle=orthogonalEdgeStyle;rounded=0;orthogonalLoop=1;jettySize=auto;html=1;" edge="1" parent="1" source="6eV6HnODiuM__9N0Hbm2-1" target="6eV6HnODiuM__9N0Hbm2-3">
          <mxGeometry relative="1" as="geometry" />
        </mxCell>
        <mxCell id="6eV6HnODiuM__9N0Hbm2-1" value="Start" style="ellipse;whiteSpace=wrap;html=1;" vertex="1" parent="1">
          <mxGeometry x="290" y="130" width="120" height="80" as="geometry" />
        </mxCell>
        <mxCell id="6eV6HnODiuM__9N0Hbm2-2" value="end" style="ellipse;whiteSpace=wrap;html=1;" vertex="1" parent="1">
          <mxGeometry x="660" y="405" width="120" height="80" as="geometry" />
        </mxCell>
        <mxCell id="6eV6HnODiuM__9N0Hbm2-6" value="" style="edgeStyle=orthogonalEdgeStyle;rounded=0;orthogonalLoop=1;jettySize=auto;html=1;" edge="1" parent="1" source="6eV6HnODiuM__9N0Hbm2-3" target="6eV6HnODiuM__9N0Hbm2-5">
          <mxGeometry relative="1" as="geometry" />
        </mxCell>
        <mxCell id="6eV6HnODiuM__9N0Hbm2-3" value="&lt;div&gt;arr[]&lt;/div&gt;&lt;div&gt;arrLength=10&lt;/div&gt;&lt;div&gt;maxIndex=0&lt;/div&gt;&lt;div&gt;minIndex=0&lt;/div&gt;&lt;div&gt;max = arr[0]&lt;/div&gt;&lt;div&gt;man = arr[0]&lt;br&gt;&lt;/div&gt;&lt;div&gt;i=0&lt;br&gt;&lt;/div&gt;" style="shape=parallelogram;perimeter=parallelogramPerimeter;whiteSpace=wrap;html=1;fixedSize=1;" vertex="1" parent="1">
          <mxGeometry x="270" y="260" width="158.76" height="110" as="geometry" />
        </mxCell>
        <mxCell id="6eV6HnODiuM__9N0Hbm2-8" value="" style="edgeStyle=orthogonalEdgeStyle;rounded=0;orthogonalLoop=1;jettySize=auto;html=1;" edge="1" parent="1" source="6eV6HnODiuM__9N0Hbm2-5" target="6eV6HnODiuM__9N0Hbm2-7">
          <mxGeometry relative="1" as="geometry" />
        </mxCell>
        <mxCell id="6eV6HnODiuM__9N0Hbm2-10" value="" style="edgeStyle=orthogonalEdgeStyle;rounded=0;orthogonalLoop=1;jettySize=auto;html=1;" edge="1" parent="1" source="6eV6HnODiuM__9N0Hbm2-5" target="6eV6HnODiuM__9N0Hbm2-9">
          <mxGeometry relative="1" as="geometry" />
        </mxCell>
        <mxCell id="6eV6HnODiuM__9N0Hbm2-5" value="arrLength&amp;lt;11" style="rhombus;whiteSpace=wrap;html=1;" vertex="1" parent="1">
          <mxGeometry x="285.38" y="400" width="127.5" height="90" as="geometry" />
        </mxCell>
        <mxCell id="6eV6HnODiuM__9N0Hbm2-16" value="" style="edgeStyle=orthogonalEdgeStyle;rounded=0;orthogonalLoop=1;jettySize=auto;html=1;" edge="1" parent="1" source="6eV6HnODiuM__9N0Hbm2-7" target="6eV6HnODiuM__9N0Hbm2-15">
          <mxGeometry relative="1" as="geometry" />
        </mxCell>
        <mxCell id="6eV6HnODiuM__9N0Hbm2-20" value="" style="edgeStyle=orthogonalEdgeStyle;rounded=0;orthogonalLoop=1;jettySize=auto;html=1;" edge="1" parent="1" source="6eV6HnODiuM__9N0Hbm2-7">
          <mxGeometry relative="1" as="geometry">
            <mxPoint x="219.9949999999999" y="570" as="targetPoint" />
          </mxGeometry>
        </mxCell>
        <mxCell id="6eV6HnODiuM__9N0Hbm2-7" value="&lt;div&gt;max &amp;lt;= arr[i]&lt;/div&gt;&lt;div&gt;min &amp;gt;= arr[i]&lt;/div&gt;" style="rhombus;whiteSpace=wrap;html=1;" vertex="1" parent="1">
          <mxGeometry x="287.13" y="520" width="125.75" height="100" as="geometry" />
        </mxCell>
        <mxCell id="6eV6HnODiuM__9N0Hbm2-11" value="" style="edgeStyle=orthogonalEdgeStyle;rounded=0;orthogonalLoop=1;jettySize=auto;html=1;" edge="1" parent="1" source="6eV6HnODiuM__9N0Hbm2-9" target="6eV6HnODiuM__9N0Hbm2-2">
          <mxGeometry relative="1" as="geometry" />
        </mxCell>
        <mxCell id="6eV6HnODiuM__9N0Hbm2-9" value="&lt;div&gt;maxIndex&lt;/div&gt;minIndex" style="shape=document;whiteSpace=wrap;html=1;boundedLbl=1;" vertex="1" parent="1">
          <mxGeometry x="470" y="405" width="120" height="80" as="geometry" />
        </mxCell>
        <mxCell id="6eV6HnODiuM__9N0Hbm2-12" value="No" style="text;html=1;strokeColor=none;fillColor=none;align=center;verticalAlign=middle;whiteSpace=wrap;rounded=0;" vertex="1" parent="1">
          <mxGeometry x="400" y="420" width="60" height="30" as="geometry" />
        </mxCell>
        <mxCell id="6eV6HnODiuM__9N0Hbm2-13" value="Yes" style="text;html=1;strokeColor=none;fillColor=none;align=center;verticalAlign=middle;whiteSpace=wrap;rounded=0;" vertex="1" parent="1">
          <mxGeometry x="290" y="485" width="60" height="30" as="geometry" />
        </mxCell>
        <mxCell id="6eV6HnODiuM__9N0Hbm2-25" value="" style="edgeStyle=orthogonalEdgeStyle;rounded=0;orthogonalLoop=1;jettySize=auto;html=1;entryX=0.5;entryY=1;entryDx=0;entryDy=0;" edge="1" parent="1" source="6eV6HnODiuM__9N0Hbm2-15" target="6eV6HnODiuM__9N0Hbm2-23">
          <mxGeometry relative="1" as="geometry">
            <mxPoint x="190.01000000000022" y="720" as="targetPoint" />
          </mxGeometry>
        </mxCell>
        <mxCell id="6eV6HnODiuM__9N0Hbm2-15" value="&lt;div&gt;max=arr[i]&lt;/div&gt;min=arr[i]&lt;div&gt;maxIndex=arr[i]&lt;/div&gt;&lt;div&gt;minIndex=arr[i]&lt;/div&gt;" style="rounded=0;whiteSpace=wrap;html=1;" vertex="1" parent="1">
          <mxGeometry x="290.01" y="680" width="120" height="80" as="geometry" />
        </mxCell>
        <mxCell id="6eV6HnODiuM__9N0Hbm2-18" value="Yes" style="text;html=1;strokeColor=none;fillColor=none;align=center;verticalAlign=middle;whiteSpace=wrap;rounded=0;" vertex="1" parent="1">
          <mxGeometry x="300" y="630" width="60" height="30" as="geometry" />
        </mxCell>
        <mxCell id="6eV6HnODiuM__9N0Hbm2-21" value="No" style="text;html=1;strokeColor=none;fillColor=none;align=center;verticalAlign=middle;whiteSpace=wrap;rounded=0;" vertex="1" parent="1">
          <mxGeometry x="230.01" y="540" width="60" height="30" as="geometry" />
        </mxCell>
        <mxCell id="6eV6HnODiuM__9N0Hbm2-27" value="" style="edgeStyle=orthogonalEdgeStyle;rounded=0;orthogonalLoop=1;jettySize=auto;html=1;entryX=0;entryY=0.5;entryDx=0;entryDy=0;" edge="1" parent="1" source="6eV6HnODiuM__9N0Hbm2-23" target="6eV6HnODiuM__9N0Hbm2-5">
          <mxGeometry relative="1" as="geometry">
            <mxPoint x="160" y="460" as="targetPoint" />
            <Array as="points">
              <mxPoint x="160" y="445" />
            </Array>
          </mxGeometry>
        </mxCell>
        <mxCell id="6eV6HnODiuM__9N0Hbm2-23" value="i+=1" style="rounded=0;whiteSpace=wrap;html=1;" vertex="1" parent="1">
          <mxGeometry x="100" y="540" width="120" height="60" as="geometry" />
        </mxCell>
      </root>
    </mxGraphModel>
  </diagram>
  <diagram id="MZxlCmbDL5lt-zp-UeD0" name="Страница 2">
    <mxGraphModel dx="2074" dy="1142" grid="1" gridSize="10" guides="1" tooltips="1" connect="1" arrows="1" fold="1" page="1" pageScale="1" pageWidth="827" pageHeight="1169" math="0" shadow="0">
      <root>
        <mxCell id="0" />
        <mxCell id="1" parent="0" />
      </root>
    </mxGraphModel>
  </diagram>
</mxfile>
